<svg width="32" height="32" viewBox="0 0 32 32" fill="none" xmlns="http://www.w3.org/2000/svg">
<path fill-rule="evenodd" clip-rule="evenodd" d="M11.999 8.0052V8.0052C11.999 5.7962 13.7899 4.00391 16.0003 4.00391V4.00391C18.2093 4.00391 20.0016 5.79476 20.0016 8.0052V8.0052C20.0016 10.2142 18.2108 12.0065 16.0003 12.0065V12.0065C13.7899 12.0036 11.999 10.2128 11.999 8.0052Z" stroke="white" stroke-width="1.5" stroke-linecap="round" stroke-linejoin="round"/>
<path fill-rule="evenodd" clip-rule="evenodd" d="M2.30273 24.0052V24.0052C2.30273 21.7962 4.09358 20.0039 6.30403 20.0039V20.0039C8.51303 20.0039 10.3053 21.7948 10.3053 24.0052V24.0052C10.3039 26.2142 8.51447 28.0065 6.30403 28.0065V28.0065C4.09358 28.0065 2.30273 26.2156 2.30273 24.0052Z" stroke="white" stroke-width="1.5" stroke-linecap="round" stroke-linejoin="round"/>
<path fill-rule="evenodd" clip-rule="evenodd" d="M21.6982 24.0052V24.0052C21.6982 21.7962 23.4891 20.0039 25.6995 20.0039V20.0039C27.9085 20.0039 29.7008 21.7948 29.7008 24.0052V24.0052C29.7008 26.2142 27.91 28.0065 25.6995 28.0065V28.0065C23.4876 28.0065 21.6982 26.2156 21.6982 24.0052H21.6982Z" stroke="white" stroke-width="1.5" stroke-linecap="round" stroke-linejoin="round"/>
<path d="M10.9393 15.8906L8.04102 20.4182" stroke="white" stroke-width="1.5" stroke-linecap="round" stroke-linejoin="round"/>
<path d="M18.1641 11.3594L21.0623 15.887" stroke="white" stroke-width="1.5" stroke-linecap="round" stroke-linejoin="round"/>
<path d="M21.6965 24.0061H16.001" stroke="white" stroke-width="1.5" stroke-linecap="round" stroke-linejoin="round"/>
</svg>
