<svg width="20" height="21" viewBox="0 0 20 21" fill="none" xmlns="http://www.w3.org/2000/svg">
<path fill-rule="evenodd" clip-rule="evenodd" d="M10.5247 3.54323C10.2189 3.79066 9.78177 3.79066 9.47596 3.54323C8.80757 3.00984 7.91299 2.85491 7.10416 3.13246C6.29532 3.41001 5.68436 4.08157 5.48429 4.91297C5.41355 5.23645 5.16028 5.48874 4.83653 5.55824C3.88476 5.75141 3.09149 6.40546 2.72042 7.30294C2.34935 8.20043 2.44913 9.22371 2.98659 10.0326C3.18025 10.3162 3.18025 10.6894 2.98659 10.973C2.44913 11.7819 2.34935 12.8052 2.72042 13.7027C3.09149 14.6001 3.88476 15.2542 4.83653 15.4474C5.16028 15.5169 5.41355 15.7691 5.48429 16.0926C5.68545 16.9233 6.29686 17.5937 7.10553 17.8704C7.9142 18.147 8.80815 17.9916 9.47596 17.4582C9.78177 17.2108 10.2189 17.2108 10.5247 17.4582C11.1937 17.9916 12.0889 18.146 12.8979 17.8675C13.7069 17.5891 14.3174 16.9164 14.5164 16.0843C14.5871 15.7608 14.8404 15.5085 15.1642 15.439C16.116 15.2457 16.9093 14.5915 17.2803 13.6938C17.6512 12.7961 17.5511 11.7726 17.0133 10.9638C16.8204 10.6806 16.8204 10.3083 17.0133 10.0251C17.5511 9.21628 17.6512 8.19286 17.2803 7.29516C16.9093 6.39746 16.116 5.74319 15.1642 5.5499C14.8404 5.4804 14.5871 5.22811 14.5164 4.90463C14.3152 4.07396 13.7038 3.40351 12.8952 3.12686C12.0865 2.85021 11.1925 3.00566 10.5247 3.53906V3.54323Z" stroke="#404968" stroke-linecap="round" stroke-linejoin="round"/>
<path d="M9.99985 3.73047V17.2719" stroke="#404968" stroke-linecap="round" stroke-linejoin="round"/>
<path d="M12.501 13.8353C12.501 12.9145 13.2475 12.168 14.1683 12.168" stroke="#404968" stroke-linecap="round" stroke-linejoin="round"/>
<path d="M7.49939 7.16406C7.49939 8.08492 6.75289 8.83142 5.83203 8.83142" stroke="#404968" stroke-linecap="round" stroke-linejoin="round"/>
<path d="M7.49939 13.8353C7.49939 12.9145 6.75289 12.168 5.83203 12.168" stroke="#404968" stroke-linecap="round" stroke-linejoin="round"/>
<path d="M12.501 7.16406C12.501 8.08492 13.2475 8.83142 14.1683 8.83142" stroke="#404968" stroke-linecap="round" stroke-linejoin="round"/>
</svg>
