<svg width="33" height="32" viewBox="0 0 33 32" fill="none" xmlns="http://www.w3.org/2000/svg">
<path fill-rule="evenodd" clip-rule="evenodd" d="M27.167 28H5.83366C4.36033 28 3.16699 26.8067 3.16699 25.3333V6.66667C3.16699 5.19333 4.36033 4 5.83366 4H27.167C28.6403 4 29.8337 5.19333 29.8337 6.66667V25.3333C29.8337 26.8067 28.6403 28 27.167 28Z" stroke="#635BFF" stroke-width="1.5" stroke-linecap="round" stroke-linejoin="round"/>
<path d="M3.16699 10.6667H29.8337" stroke="#635BFF" stroke-width="1.5" stroke-linecap="round" stroke-linejoin="round"/>
<path d="M16.465 15.301V14.0685" stroke="#635BFF" stroke-width="1.5" stroke-linecap="round" stroke-linejoin="round"/>
<path d="M16.465 22.6974V23.9299" stroke="#635BFF" stroke-width="1.5" stroke-linecap="round" stroke-linejoin="round"/>
<path d="M14.3268 21.8127C14.6465 22.3353 15.1916 22.6972 15.8494 22.6972H16.4663H17.2002C18.1565 22.6972 18.9298 21.9226 18.9298 20.9676C18.9298 20.1732 18.389 19.4816 17.6199 19.2872L15.3099 18.7069C14.5423 18.5139 14 17.8209 14 17.0265C14 16.0702 14.7747 15.2969 15.7297 15.2969H16.4635H17.0804C17.7382 15.2969 18.2819 15.656 18.6016 16.1772" stroke="#635BFF" stroke-width="1.5" stroke-linecap="round" stroke-linejoin="round"/>
<path d="M6.87272 7.32016C6.86872 7.32016 6.86605 7.32282 6.86605 7.32682C6.86605 7.33082 6.86872 7.33349 6.87272 7.33349C6.87672 7.33349 6.87939 7.33082 6.87939 7.32682C6.87939 7.32282 6.87672 7.32016 6.87272 7.32016" stroke="#635BFF" stroke-width="1.5" stroke-linecap="round" stroke-linejoin="round"/>
<path d="M10.2633 7.32016C10.2593 7.32016 10.2567 7.32282 10.2567 7.32682C10.2567 7.33082 10.2607 7.33349 10.2633 7.33349C10.2673 7.33349 10.27 7.33082 10.27 7.32682C10.27 7.32282 10.2673 7.32016 10.2633 7.32016" stroke="#635BFF" stroke-width="1.5" stroke-linecap="round" stroke-linejoin="round"/>
<path d="M13.6481 7.32016C13.6441 7.32016 13.6414 7.32282 13.6414 7.32682C13.6414 7.33082 13.6441 7.33349 13.6481 7.33349C13.6521 7.33349 13.6548 7.33082 13.6548 7.32682C13.6548 7.32282 13.6521 7.32016 13.6481 7.32016" stroke="#635BFF" stroke-width="1.5" stroke-linecap="round" stroke-linejoin="round"/>
</svg>
