<svg width="20" height="21" viewBox="0 0 20 21" fill="none" xmlns="http://www.w3.org/2000/svg">
<path fill-rule="evenodd" clip-rule="evenodd" d="M14.1667 3.83203H5.83333C3.9925 3.83203 2.5 5.32453 2.5 7.16536V7.16536C2.5 9.0062 3.9925 10.4987 5.83333 10.4987H14.1667C16.0075 10.4987 17.5 9.0062 17.5 7.16536V7.16536C17.5 5.32453 16.0075 3.83203 14.1667 3.83203Z" stroke="#404968" stroke-linecap="round" stroke-linejoin="round"/>
<path d="M9.16699 7.16667H14.167" stroke="#404968" stroke-linecap="round" stroke-linejoin="round"/>
<path fill-rule="evenodd" clip-rule="evenodd" d="M14.1667 10.5H5.83333C3.9925 10.5 2.5 11.9925 2.5 13.8333V13.8333C2.5 15.6742 3.9925 17.1667 5.83333 17.1667H14.1667C16.0075 17.1667 17.5 15.6742 17.5 13.8333V13.8333C17.5 11.9925 16.0075 10.5 14.1667 10.5Z" stroke="#404968" stroke-linecap="round" stroke-linejoin="round"/>
<path d="M5.86312 7.1372C5.87939 7.15348 5.87939 7.17986 5.86312 7.19613C5.84685 7.2124 5.82047 7.2124 5.8042 7.19613C5.78792 7.17986 5.78792 7.15348 5.8042 7.1372C5.82047 7.12093 5.84685 7.12093 5.86312 7.1372" stroke="#404968" stroke-linecap="round" stroke-linejoin="round"/>
<path d="M9.16699 13.8307H14.167" stroke="#404968" stroke-linecap="round" stroke-linejoin="round"/>
<path d="M5.86312 13.8013C5.87939 13.8175 5.87939 13.8439 5.86312 13.8602C5.84685 13.8765 5.82047 13.8765 5.8042 13.8602C5.78792 13.8439 5.78792 13.8175 5.8042 13.8013C5.82047 13.785 5.84685 13.785 5.86312 13.8013" stroke="#404968" stroke-linecap="round" stroke-linejoin="round"/>
</svg>
