<svg width="32" height="32" viewBox="0 0 32 32" fill="none" xmlns="http://www.w3.org/2000/svg">
<path d="M28.1185 27.8848C28.1836 27.9498 28.1836 28.0554 28.1185 28.1205C28.0534 28.1855 27.9479 28.1855 27.8828 28.1205C27.8177 28.0554 27.8177 27.9498 27.8828 27.8848C27.9479 27.8197 28.0534 27.8197 28.1185 27.8848" stroke="white" stroke-width="1.5" stroke-linecap="round" stroke-linejoin="round"/>
<path d="M28.1185 15.8848C28.1836 15.9498 28.1836 16.0554 28.1185 16.1205C28.0534 16.1855 27.9479 16.1855 27.8828 16.1205C27.8177 16.0554 27.8177 15.9498 27.8828 15.8848C27.9479 15.8197 28.0534 15.8197 28.1185 15.8848" stroke="white" stroke-width="1.5" stroke-linecap="round" stroke-linejoin="round"/>
<path d="M28.1185 21.8848C28.1836 21.9498 28.1836 22.0554 28.1185 22.1205C28.0534 22.1855 27.9479 22.1855 27.8828 22.1205C27.8177 22.0554 27.8177 21.9498 27.8828 21.8848C27.9479 21.8197 28.0534 21.8197 28.1185 21.8848" stroke="white" stroke-width="1.5" stroke-linecap="round" stroke-linejoin="round"/>
<path d="M28.1185 9.88475C28.1836 9.94984 28.1836 10.0554 28.1185 10.1205C28.0534 10.1855 27.9479 10.1855 27.8828 10.1205C27.8177 10.0554 27.8177 9.94984 27.8828 9.88475C27.9479 9.81967 28.0534 9.81967 28.1185 9.88475" stroke="white" stroke-width="1.5" stroke-linecap="round" stroke-linejoin="round"/>
<path d="M22.1185 27.8848C22.1836 27.9498 22.1836 28.0554 22.1185 28.1205C22.0534 28.1855 21.9479 28.1855 21.8828 28.1205C21.8177 28.0554 21.8177 27.9498 21.8828 27.8848C21.9479 27.8197 22.0534 27.8197 22.1185 27.8848" stroke="white" stroke-width="1.5" stroke-linecap="round" stroke-linejoin="round"/>
<path d="M4.1185 3.88475C4.18359 3.94984 4.18359 4.05537 4.1185 4.12046C4.05342 4.18554 3.94789 4.18554 3.8828 4.12046C3.81771 4.05537 3.81771 3.94984 3.8828 3.88475C3.94789 3.81967 4.05341 3.81967 4.1185 3.88475" stroke="white" stroke-width="1.5" stroke-linecap="round" stroke-linejoin="round"/>
<path d="M28.1185 3.88475C28.1836 3.94984 28.1836 4.05537 28.1185 4.12046C28.0534 4.18554 27.9479 4.18554 27.8828 4.12046C27.8177 4.05537 27.8177 3.94984 27.8828 3.88475C27.9479 3.81967 28.0534 3.81967 28.1185 3.88475" stroke="white" stroke-width="1.5" stroke-linecap="round" stroke-linejoin="round"/>
<path d="M16.1185 3.88475C16.1836 3.94984 16.1836 4.05537 16.1185 4.12046C16.0534 4.18554 15.9479 4.18554 15.8828 4.12046C15.8177 4.05537 15.8177 3.94984 15.8828 3.88475C15.9479 3.81967 16.0534 3.81967 16.1185 3.88475" stroke="white" stroke-width="1.5" stroke-linecap="round" stroke-linejoin="round"/>
<path d="M10.1185 3.88475C10.1836 3.94984 10.1836 4.05537 10.1185 4.12046C10.0534 4.18554 9.94789 4.18554 9.8828 4.12046C9.81771 4.05537 9.81771 3.94984 9.8828 3.88475C9.94789 3.81967 10.0534 3.81967 10.1185 3.88475" stroke="white" stroke-width="1.5" stroke-linecap="round" stroke-linejoin="round"/>
<path d="M22.1185 3.88475C22.1836 3.94984 22.1836 4.05537 22.1185 4.12046C22.0534 4.18554 21.9479 4.18554 21.8828 4.12046C21.8177 4.05537 21.8177 3.94984 21.8828 3.88475C21.9479 3.81967 22.0534 3.81967 22.1185 3.88475" stroke="white" stroke-width="1.5" stroke-linecap="round" stroke-linejoin="round"/>
<path d="M4.1185 9.88475C4.18359 9.94984 4.18359 10.0554 4.1185 10.1205C4.05342 10.1855 3.94789 10.1855 3.8828 10.1205C3.81771 10.0554 3.81771 9.94984 3.8828 9.88475C3.94789 9.81967 4.05341 9.81967 4.1185 9.88475" stroke="white" stroke-width="1.5" stroke-linecap="round" stroke-linejoin="round"/>
<path fill-rule="evenodd" clip-rule="evenodd" d="M13.593 28.0039H6.40898C5.07964 28.0039 4.00098 26.9252 4.00098 25.5959V18.4119C4.00098 17.0826 5.07964 16.0039 6.40898 16.0039H13.593C14.9223 16.0039 16.001 17.0826 16.001 18.4119V25.5959C16.001 26.9252 14.9223 28.0039 13.593 28.0039V28.0039Z" stroke="white" stroke-width="1.5" stroke-linecap="round" stroke-linejoin="round"/>
<path d="M15.2939 16.708L21.3339 10.668" stroke="white" stroke-width="1.5" stroke-linecap="round" stroke-linejoin="round"/>
<path d="M21.3337 16.0013V10.668" stroke="white" stroke-width="1.5" stroke-linecap="round" stroke-linejoin="round"/>
<path d="M16.001 10.6706H21.3343" stroke="white" stroke-width="1.5" stroke-linecap="round" stroke-linejoin="round"/>
</svg>
