<svg width="24" height="24" viewBox="0 0 24 24" fill="none" xmlns="http://www.w3.org/2000/svg">
<path d="M21.0884 20.9116C21.1372 20.9604 21.1372 21.0396 21.0884 21.0884C21.0396 21.1372 20.9604 21.1372 20.9116 21.0884C20.8628 21.0396 20.8628 20.9604 20.9116 20.9116C20.9604 20.8628 21.0396 20.8628 21.0884 20.9116" stroke="#691AFF" stroke-width="1.5" stroke-linecap="round" stroke-linejoin="round"/>
<path d="M21.0884 11.9116C21.1372 11.9604 21.1372 12.0396 21.0884 12.0884C21.0396 12.1372 20.9604 12.1372 20.9116 12.0884C20.8628 12.0396 20.8628 11.9604 20.9116 11.9116C20.9604 11.8628 21.0396 11.8628 21.0884 11.9116" stroke="#691AFF" stroke-width="1.5" stroke-linecap="round" stroke-linejoin="round"/>
<path d="M21.0884 16.4116C21.1372 16.4604 21.1372 16.5396 21.0884 16.5884C21.0396 16.6372 20.9604 16.6372 20.9116 16.5884C20.8628 16.5396 20.8628 16.4604 20.9116 16.4116C20.9604 16.3628 21.0396 16.3628 21.0884 16.4116" stroke="#691AFF" stroke-width="1.5" stroke-linecap="round" stroke-linejoin="round"/>
<path d="M21.0884 7.41161C21.1372 7.46043 21.1372 7.53957 21.0884 7.58839C21.0396 7.6372 20.9604 7.6372 20.9116 7.58839C20.8628 7.53957 20.8628 7.46043 20.9116 7.41161C20.9604 7.3628 21.0396 7.3628 21.0884 7.41161" stroke="#691AFF" stroke-width="1.5" stroke-linecap="round" stroke-linejoin="round"/>
<path d="M16.5884 20.9116C16.6372 20.9604 16.6372 21.0396 16.5884 21.0884C16.5396 21.1372 16.4604 21.1372 16.4116 21.0884C16.3628 21.0396 16.3628 20.9604 16.4116 20.9116C16.4604 20.8628 16.5396 20.8628 16.5884 20.9116" stroke="#691AFF" stroke-width="1.5" stroke-linecap="round" stroke-linejoin="round"/>
<path d="M3.08839 2.91161C3.1372 2.96043 3.1372 3.03957 3.08839 3.08839C3.03957 3.1372 2.96043 3.1372 2.91161 3.08839C2.8628 3.03957 2.8628 2.96043 2.91161 2.91161C2.96043 2.8628 3.03957 2.8628 3.08839 2.91161" stroke="#691AFF" stroke-width="1.5" stroke-linecap="round" stroke-linejoin="round"/>
<path d="M21.0884 2.91161C21.1372 2.96043 21.1372 3.03957 21.0884 3.08839C21.0396 3.1372 20.9604 3.1372 20.9116 3.08839C20.8628 3.03957 20.8628 2.96043 20.9116 2.91161C20.9604 2.8628 21.0396 2.8628 21.0884 2.91161" stroke="#691AFF" stroke-width="1.5" stroke-linecap="round" stroke-linejoin="round"/>
<path d="M12.0884 2.91161C12.1372 2.96043 12.1372 3.03957 12.0884 3.08839C12.0396 3.1372 11.9604 3.1372 11.9116 3.08839C11.8628 3.03957 11.8628 2.96043 11.9116 2.91161C11.9604 2.8628 12.0396 2.8628 12.0884 2.91161" stroke="#691AFF" stroke-width="1.5" stroke-linecap="round" stroke-linejoin="round"/>
<path d="M7.58839 2.91161C7.6372 2.96043 7.6372 3.03957 7.58839 3.08839C7.53957 3.1372 7.46043 3.1372 7.41161 3.08839C7.3628 3.03957 7.3628 2.96043 7.41161 2.91161C7.46043 2.8628 7.53957 2.8628 7.58839 2.91161" stroke="#691AFF" stroke-width="1.5" stroke-linecap="round" stroke-linejoin="round"/>
<path d="M16.5884 2.91161C16.6372 2.96043 16.6372 3.03957 16.5884 3.08839C16.5396 3.1372 16.4604 3.1372 16.4116 3.08839C16.3628 3.03957 16.3628 2.96043 16.4116 2.91161C16.4604 2.8628 16.5396 2.8628 16.5884 2.91161" stroke="#691AFF" stroke-width="1.5" stroke-linecap="round" stroke-linejoin="round"/>
<path d="M3.08839 7.41161C3.1372 7.46043 3.1372 7.53957 3.08839 7.58839C3.03957 7.6372 2.96043 7.6372 2.91161 7.58839C2.8628 7.53957 2.8628 7.46043 2.91161 7.41161C2.96043 7.3628 3.03957 7.3628 3.08839 7.41161" stroke="#691AFF" stroke-width="1.5" stroke-linecap="round" stroke-linejoin="round"/>
<path fill-rule="evenodd" clip-rule="evenodd" d="M10.194 21H4.806C3.809 21 3 20.191 3 19.194V13.806C3 12.809 3.809 12 4.806 12H10.194C11.191 12 12 12.809 12 13.806V19.194C12 20.191 11.191 21 10.194 21V21Z" stroke="#691AFF" stroke-width="1.5" stroke-linecap="round" stroke-linejoin="round"/>
<path d="M11.4697 12.53L15.9997 8" stroke="#691AFF" stroke-width="1.5" stroke-linecap="round" stroke-linejoin="round"/>
<path d="M16 12V8" stroke="#691AFF" stroke-width="1.5" stroke-linecap="round" stroke-linejoin="round"/>
<path d="M12 8H16" stroke="#691AFF" stroke-width="1.5" stroke-linecap="round" stroke-linejoin="round"/>
</svg>
