<svg width="53" height="44" viewBox="0 0 53 44" fill="none" xmlns="http://www.w3.org/2000/svg">
<path d="M23.1306 42.7273H23.8579V42V22.1961V21.4688H23.1306H13.6581C13.9189 19.5589 14.6452 17.9045 15.832 16.4863L15.832 16.4864L15.8363 16.4812C17.1807 14.8443 19.6795 13.1355 23.4377 11.3847L24.133 11.0608L23.7726 10.3838L19.128 1.65827L18.8122 1.06499L18.1959 1.3331C11.9772 4.03837 7.49659 7.19281 4.85269 10.8377C2.19656 14.4994 0.909446 19.4389 0.909446 25.5784V42V42.7273H1.63672H23.1306ZM50.364 42.7273H51.0913V42V22.1961V21.4688H50.364H40.8914C41.1522 19.5589 41.8786 17.9045 43.0653 16.4863L43.0654 16.4864L43.0696 16.4812C44.414 14.8443 46.9128 13.1355 50.6711 11.3847L51.3664 11.0608L51.006 10.3838L46.3613 1.65827L46.0455 1.06499L45.4292 1.3331C39.2106 4.03837 34.7299 7.19281 32.086 10.8377C29.4299 14.4994 28.1428 19.4389 28.1428 25.5784V42V42.7273H28.8701H50.364Z" stroke="#635BFF" stroke-width="1.45455"/>
</svg>
