<svg width="126" height="30" viewBox="0 0 126 30" fill="none" xmlns="http://www.w3.org/2000/svg">
<path d="M33.4818 13.2354C32.8036 13.2294 32.1312 13.3622 31.5061 13.6254C30.8996 13.8823 30.3457 14.2488 29.872 14.7066C29.3942 15.1717 29.0117 15.7256 28.746 16.3372C28.4605 16.985 28.315 17.6859 28.3189 18.3939C28.3156 19.0826 28.4569 19.7644 28.7336 20.3951C29.2787 21.6339 30.2683 22.6234 31.507 23.1685C32.1286 23.4452 32.8024 23.5851 33.4827 23.5788C34.1706 23.582 34.8515 23.4407 35.4813 23.1641C36.094 22.8985 36.649 22.516 37.1154 22.038C37.5786 21.5554 37.9524 20.9943 38.2195 20.381C38.4891 19.7531 38.6261 19.0763 38.6218 18.393C38.588 17.05 38.0473 15.7695 37.1084 14.8087C36.156 13.8251 34.8525 13.2593 33.4836 13.2354H33.4818ZM33.4818 7.49229C34.915 7.48581 36.334 7.77567 37.6498 8.34368C38.9391 8.89374 40.1112 9.6854 41.1029 10.676C42.0949 11.6703 42.8929 12.8407 43.4563 14.1273C44.0291 15.462 44.3264 16.8987 44.3302 18.3511C44.3339 19.8036 44.0442 21.2418 43.4783 22.5795C42.927 23.8565 42.1443 25.0206 41.1698 26.0132C40.1882 27.0043 39.0236 27.7955 37.7405 28.3428C36.3935 28.917 34.9425 29.2068 33.4783 29.1942C32.0336 29.2045 30.6009 28.9305 29.2619 28.3877C27.6288 27.7035 26.1885 26.6294 25.0669 25.2593C23.9453 23.8893 23.1768 22.2651 22.8286 20.5291C22.4805 18.7931 22.5633 16.9982 23.0698 15.3016C23.5763 13.605 24.4911 12.0585 25.734 10.7975C26.7285 9.81267 27.8989 9.02308 29.1844 8.46958C30.5424 7.87705 32.0002 7.54695 33.481 7.4967L33.4818 7.49229Z" fill="#635BFF"/>
<path d="M21.6095 17.9562V28.5989C21.6095 28.757 21.5467 28.9086 21.4349 29.0204C21.3231 29.1322 21.1715 29.195 21.0134 29.195H16.8164C16.553 29.195 16.3004 29.0903 16.1141 28.9041C15.9279 28.7178 15.8232 28.4652 15.8232 28.2018V18.0565C15.8232 17.405 15.6938 16.8979 15.4455 16.2957C15.2 15.7002 14.8449 15.1561 14.3987 14.6915C13.9386 14.2086 13.3834 13.8263 12.7682 13.5687C12.1529 13.3111 11.491 13.1838 10.8241 13.1948C10.1911 13.1836 9.56239 13.3011 8.97611 13.54C8.38982 13.779 7.85815 14.1345 7.41329 14.585C6.48891 15.4854 5.9134 16.6841 5.78888 17.9685V28.2009C5.78888 28.4643 5.68425 28.7169 5.498 28.9032C5.31175 29.0894 5.05914 29.1941 4.79575 29.1941H0.596056C0.438125 29.1941 0.286649 29.1314 0.174892 29.0198C0.0631349 28.9082 0.000233282 28.7568 0 28.5989L0 1.40833C3.47429e-05 1.31702 0.0210493 1.22693 0.0614219 1.14502C0.101794 1.06312 0.160446 0.991585 0.232849 0.935943C0.305253 0.8803 0.389472 0.842037 0.479009 0.824105C0.568546 0.806174 0.661006 0.809054 0.749253 0.832523L5.05547 1.97709C5.26687 2.03354 5.4537 2.15821 5.58696 2.33175C5.72022 2.50529 5.79244 2.71797 5.7924 2.93677V8.69659C6.5254 8.23175 7.34221 7.91471 8.19688 7.76333C9.06358 7.59104 9.94485 7.50259 10.8285 7.4992C12.247 7.49168 13.6532 7.76239 14.9674 8.296C16.2444 8.80952 17.4103 9.56466 18.4012 10.52C19.3861 11.4788 20.1804 12.6155 20.7422 13.87C21.3202 15.1544 21.6159 16.5478 21.6095 17.9562Z" fill="#635BFF"/>
<path d="M63.0957 25.093C62.7523 25.9154 62.2434 26.5722 61.6042 27.1902C60.9686 27.7898 60.2281 28.3524 59.4199 28.6799C58.5267 29.0333 57.5726 29.2071 56.6122 29.1915H46.1288C46.0375 29.1914 45.9474 29.1704 45.8655 29.13C45.7836 29.0897 45.712 29.031 45.6564 28.9586C45.6008 28.8862 45.5625 28.802 45.5446 28.7125C45.5266 28.6229 45.5295 28.5305 45.553 28.4422L46.724 24.0541C46.7804 23.8427 46.9051 23.6559 47.0786 23.5226C47.2522 23.3894 47.4648 23.3171 47.6836 23.3172H56.5144C57.313 23.3172 57.7101 22.9597 57.7101 22.2466C57.7498 21.9696 57.6781 21.6881 57.5105 21.4639C57.343 21.2398 57.0934 21.0912 56.8164 21.0509C56.7162 21.037 56.6146 21.037 56.5144 21.0509H51.6218C50.7509 21.053 49.8905 20.8602 49.1038 20.4866C48.3219 20.1192 47.6238 19.5954 47.0524 18.9476C46.4862 18.3129 46.0276 17.5899 45.6947 16.8072C45.3641 16.017 45.1972 15.1678 45.2043 14.3112C45.2025 13.4248 45.3763 12.5468 45.7159 11.728C46.0411 10.9184 46.516 10.1773 47.1158 9.54361C47.7131 8.91648 48.4242 8.40856 49.2112 8.04686C50.0417 7.68544 50.9371 7.49673 51.8428 7.49219H61.9573C62.0486 7.49232 62.1387 7.51344 62.2206 7.55392C62.3025 7.5944 62.3739 7.65316 62.4295 7.72565C62.4851 7.79815 62.5232 7.88244 62.541 7.97203C62.5588 8.06161 62.5558 8.15409 62.5322 8.24232L61.3991 12.4579C61.3424 12.6686 61.2179 12.8549 61.0447 12.9877C60.8716 13.1206 60.6594 13.1928 60.4412 13.193L52.1131 13.2001C51.7811 13.1896 51.4564 13.2997 51.1992 13.51C51.0711 13.6191 50.9701 13.7564 50.9039 13.9112C50.8378 14.0659 50.8084 14.2339 50.818 14.4019C50.8058 14.5798 50.8337 14.7581 50.8997 14.9238C50.9657 15.0894 51.0681 15.2381 51.1992 15.3589C51.4509 15.5816 51.7781 15.7 52.114 15.6899H57.1483C58.0355 15.6822 58.9124 15.8799 59.7104 16.2675C60.4854 16.6453 61.1811 17.1676 61.7601 17.8065C62.3145 18.4075 62.7728 19.0906 63.1186 19.8315C63.4553 20.6181 63.6224 21.4668 63.609 22.3223C63.6455 23.2725 63.4702 24.2189 63.0957 25.093Z" fill="#635BFF"/>
<path d="M84.121 24.4162C84.231 24.6051 84.2756 24.8249 84.2479 25.0417C84.2202 25.2585 84.1218 25.4602 83.9678 25.6153L83.4017 26.1858C82.4086 27.1631 81.4533 27.7486 80.1767 28.2989C78.9083 28.8369 77.5431 29.1093 76.1654 29.0992C74.6744 29.1091 73.1942 28.8453 71.7984 28.3209C70.4619 27.8207 69.2357 27.0647 68.1886 26.0952C67.1391 25.1145 66.2977 23.9327 65.7146 22.6201C65.0837 21.1952 64.7511 19.6564 64.7373 18.0981V1.40856C64.7373 1.31715 64.7583 1.22697 64.7987 1.14498C64.8392 1.06299 64.8979 0.991397 64.9704 0.935737C65.0429 0.880076 65.1273 0.841839 65.2169 0.823983C65.3066 0.806126 65.3991 0.809129 65.4874 0.832758L70.1133 2.06537C70.3247 2.12182 70.5115 2.24649 70.6447 2.42003C70.778 2.59356 70.8502 2.80625 70.8502 3.02505V7.49591H80.7991C80.8904 7.49595 80.9805 7.51696 81.0624 7.55733C81.1443 7.59771 81.2159 7.65636 81.2715 7.72876C81.3272 7.80116 81.3654 7.88538 81.3834 7.97492C81.4013 8.06446 81.3984 8.15692 81.3749 8.24516L80.2497 12.466C80.1933 12.6774 80.0686 12.8642 79.8951 12.9975C79.7215 13.1307 79.5089 13.2029 79.2901 13.2029H70.8467V18.2276C70.8429 18.8921 70.9719 19.5506 71.2261 20.1645C71.4739 20.7658 71.8293 21.3169 72.2747 21.7907C72.7185 22.2664 73.256 22.645 73.8534 22.9027C74.4699 23.1737 75.1362 23.3132 75.8097 23.3121C76.4858 23.3295 77.1595 23.2236 77.7977 22.9995C78.1752 22.8519 78.5286 22.6489 78.8463 22.3973C79.0607 22.23 79.2636 22.0485 79.4538 21.8541L80.9127 20.3926C80.9771 20.3278 81.0555 20.2786 81.1419 20.2489C81.2283 20.2193 81.3204 20.2099 81.411 20.2214C81.5017 20.233 81.5884 20.2653 81.6646 20.3157C81.7408 20.3661 81.8043 20.4334 81.8504 20.5123L84.121 24.4162Z" fill="#635BFF"/>
<path d="M33.4716 7.49219C31.3256 7.49219 29.2278 8.12856 27.4434 9.32083C25.659 10.5131 24.2683 12.2077 23.447 14.1904C22.6258 16.1731 22.4109 18.3547 22.8296 20.4595C23.2483 22.5643 24.2817 24.4977 25.7991 26.0152C27.3166 27.5327 29.25 28.5661 31.3548 28.9847C33.4596 29.4034 35.6413 29.1885 37.6239 28.3673C39.6066 27.546 41.3012 26.1553 42.4935 24.3709C43.6858 22.5866 44.3221 20.4887 44.3221 18.3427C44.3221 16.9178 44.0415 15.5068 43.4962 14.1904C42.9509 12.8739 42.1517 11.6778 41.1441 10.6702C40.1365 9.66267 38.9404 8.86342 37.6239 8.31813C36.3075 7.77284 34.8965 7.49219 33.4716 7.49219ZM33.4637 23.4704C32.4494 23.4702 31.4579 23.1692 30.6146 22.6056C29.7713 22.0419 29.1141 21.2408 28.7261 20.3036C28.3381 19.3664 28.2367 18.3352 28.4347 17.3404C28.6328 16.3456 29.1214 15.4319 29.8388 14.7148C30.5561 13.9977 31.47 13.5094 32.4649 13.3116C33.4598 13.1139 34.4909 13.2157 35.428 13.604C36.3651 13.9923 37.1659 14.6498 37.7293 15.4933C38.2927 16.3368 38.5933 17.3284 38.5931 18.3427C38.5931 19.0162 38.4604 19.6832 38.2026 20.3054C37.9448 20.9276 37.567 21.493 37.0906 21.9691C36.6143 22.4453 36.0488 22.823 35.4265 23.0806C34.8042 23.3381 34.1372 23.4706 33.4637 23.4704Z" fill="#635BFF"/>
<path d="M95.4609 7.49219C93.3148 7.49219 91.217 8.12856 89.4326 9.32083C87.6483 10.5131 86.2576 12.2077 85.4363 14.1904C84.6151 16.1731 84.4002 18.3547 84.8188 20.4595C85.2375 22.5643 86.2709 24.4977 87.7884 26.0152C89.3059 27.5327 91.2392 28.5661 93.344 28.9847C95.4488 29.4034 97.6305 29.1885 99.6132 28.3673C101.596 27.546 103.29 26.1553 104.483 24.3709C105.675 22.5866 106.311 20.4887 106.311 18.3427C106.311 16.9178 106.031 15.5068 105.485 14.1904C104.94 12.8739 104.141 11.6778 103.133 10.6702C102.126 9.66267 100.93 8.86342 99.6132 8.31813C98.2967 7.77284 96.8858 7.49219 95.4609 7.49219ZM95.4529 23.4704C94.4386 23.4702 93.4471 23.1692 92.6038 22.6056C91.7605 22.0419 91.1033 21.2408 90.7153 20.3036C90.3273 19.3664 90.2259 18.3352 90.424 17.3404C90.6221 16.3456 91.1107 15.4319 91.828 14.7148C92.5454 13.9977 93.4593 13.5094 94.4542 13.3116C95.449 13.1139 96.4802 13.2157 97.4173 13.604C98.3543 13.9923 99.1552 14.6498 99.7186 15.4933C100.282 16.3368 100.583 17.3284 100.582 18.3427C100.582 19.0162 100.45 19.6832 100.192 20.3054C99.9341 20.9276 99.5562 21.493 99.0799 21.9691C98.6036 22.4453 98.0381 22.823 97.4158 23.0806C96.7934 23.3381 96.1265 23.4706 95.4529 23.4704Z" fill="#635BFF"/>
<path d="M114.654 7.49219C112.508 7.49219 110.41 8.12856 108.626 9.32083C106.842 10.5131 105.451 12.2077 104.63 14.1904C103.808 16.1731 103.594 18.3547 104.012 20.4595C104.431 22.5643 105.464 24.4977 106.982 26.0152C108.499 27.5327 110.433 28.5661 112.537 28.9847C114.642 29.4034 116.824 29.1885 118.807 28.3673C120.789 27.546 122.484 26.1553 123.676 24.3709C124.868 22.5866 125.505 20.4887 125.505 18.3427C125.505 16.9178 125.224 15.5068 124.679 14.1904C124.134 12.8739 123.334 11.6778 122.327 10.6702C121.319 9.66267 120.123 8.86342 118.807 8.31813C117.49 7.77284 116.079 7.49219 114.654 7.49219ZM114.646 23.4704C113.632 23.4702 112.64 23.1692 111.797 22.6056C110.954 22.0419 110.297 21.2408 109.909 20.3036C109.521 19.3664 109.419 18.3352 109.617 17.3404C109.815 16.3456 110.304 15.4319 111.021 14.7148C111.739 13.9977 112.653 13.5094 113.648 13.3116C114.642 13.1139 115.674 13.2157 116.611 13.604C117.548 13.9923 118.349 14.6498 118.912 15.4933C119.475 16.3368 119.776 17.3284 119.776 18.3427C119.776 19.0162 119.643 19.6832 119.385 20.3054C119.127 20.9276 118.75 21.493 118.273 21.9691C117.797 22.4453 117.231 22.823 116.609 23.0806C115.987 23.3381 115.32 23.4706 114.646 23.4704Z" fill="#635BFF"/>
</svg>
