<svg width="20" height="21" viewBox="0 0 20 21" fill="none" xmlns="http://www.w3.org/2000/svg">
<rect x="1.66699" y="8.83203" width="16.6667" height="8.33333" rx="1.5" stroke="#404968" stroke-linecap="round" stroke-linejoin="round"/>
<rect x="4.16699" y="11.332" width="2.5" height="3.33333" rx="0.5" stroke="#404968" stroke-linecap="round" stroke-linejoin="round"/>
<rect x="13.333" y="11.332" width="2.5" height="3.33333" rx="0.5" stroke="#404968" stroke-linecap="round" stroke-linejoin="round"/>
<rect x="8.75" y="11.332" width="2.5" height="3.33333" rx="0.5" stroke="#404968" stroke-linecap="round" stroke-linejoin="round"/>
<path d="M17.5 8.90811V5.5013C17.5 5.04106 17.1269 4.66797 16.6667 4.66797H12.8253C12.4429 4.66797 12.1096 4.92822 12.0169 5.29919L11.9158 5.70342C11.8231 6.07439 11.4898 6.33463 11.1074 6.33464H8.89263C8.51024 6.33464 8.17691 6.07439 8.08417 5.70342L7.98311 5.29919C7.89037 4.92822 7.55706 4.66798 7.17467 4.66797H3.33333C2.8731 4.66797 2.5 5.04106 2.5 5.5013V8.90811" stroke="#404968" stroke-linecap="round" stroke-linejoin="round"/>
</svg>
