<svg width="32" height="32" viewBox="0 0 32 32" fill="none" xmlns="http://www.w3.org/2000/svg">
<g clip-path="url(#clip0_316_263)">
<path fill-rule="evenodd" clip-rule="evenodd" d="M26.667 28H5.33366C3.86033 28 2.66699 26.8067 2.66699 25.3333V6.66667C2.66699 5.19333 3.86033 4 5.33366 4H26.667C28.1403 4 29.3337 5.19333 29.3337 6.66667V25.3333C29.3337 26.8067 28.1403 28 26.667 28Z" stroke="white" stroke-width="1.5" stroke-linecap="round" stroke-linejoin="round"/>
<path d="M2.66699 10.6667H29.3337" stroke="white" stroke-width="1.5" stroke-linecap="round" stroke-linejoin="round"/>
<path d="M15.965 15.301V14.0685" stroke="white" stroke-width="1.5" stroke-linecap="round" stroke-linejoin="round"/>
<path d="M15.965 22.6974V23.9299" stroke="white" stroke-width="1.5" stroke-linecap="round" stroke-linejoin="round"/>
<path d="M13.8268 21.8127C14.1465 22.3353 14.6916 22.6972 15.3494 22.6972H15.9663H16.7002C17.6565 22.6972 18.4298 21.9226 18.4298 20.9676C18.4298 20.1732 17.889 19.4816 17.1199 19.2872L14.8099 18.7069C14.0423 18.5139 13.5 17.8209 13.5 17.0265C13.5 16.0702 14.2747 15.2969 15.2297 15.2969H15.9635H16.5804C17.2382 15.2969 17.7819 15.656 18.1016 16.1772" stroke="white" stroke-width="1.5" stroke-linecap="round" stroke-linejoin="round"/>
<path d="M6.37272 7.32016C6.36872 7.32016 6.36605 7.32282 6.36605 7.32682C6.36605 7.33082 6.36872 7.33349 6.37272 7.33349C6.37672 7.33349 6.37939 7.33082 6.37939 7.32682C6.37939 7.32282 6.37672 7.32016 6.37272 7.32016" stroke="white" stroke-width="1.5" stroke-linecap="round" stroke-linejoin="round"/>
<path d="M9.76335 7.32016C9.75935 7.32016 9.75668 7.32282 9.75668 7.32682C9.75668 7.33082 9.76068 7.33349 9.76335 7.33349C9.76735 7.33349 9.77001 7.33082 9.77001 7.32682C9.77001 7.32282 9.76735 7.32016 9.76335 7.32016" stroke="white" stroke-width="1.5" stroke-linecap="round" stroke-linejoin="round"/>
<path d="M13.1481 7.32016C13.1441 7.32016 13.1414 7.32282 13.1414 7.32682C13.1414 7.33082 13.1441 7.33349 13.1481 7.33349C13.1521 7.33349 13.1548 7.33082 13.1548 7.32682C13.1548 7.32282 13.1521 7.32016 13.1481 7.32016" stroke="white" stroke-width="1.5" stroke-linecap="round" stroke-linejoin="round"/>
</g>
<defs>
<clipPath id="clip0_316_263">
<rect width="32" height="32" fill="white"/>
</clipPath>
</defs>
</svg>
