<svg width="26" height="26" viewBox="0 0 26 26" fill="none" xmlns="http://www.w3.org/2000/svg">
<path fill-rule="evenodd" clip-rule="evenodd" d="M13 25V25C6.372 25 1 19.628 1 13V13C1 6.372 6.372 1 13 1V1C19.628 1 25 6.372 25 13V13C25 19.628 19.628 25 13 25Z" stroke="#635BFF" stroke-width="2" stroke-linecap="round" stroke-linejoin="round"/>
<path d="M13.0007 14.668V14.3346C13.0007 13.2453 13.674 12.6546 14.3487 12.2013C15.0073 11.7573 15.6673 11.1786 15.6673 10.112C15.6673 8.63865 14.474 7.44531 13.0007 7.44531C11.5273 7.44531 10.334 8.63865 10.334 10.112" stroke="#635BFF" stroke-width="2" stroke-linecap="round" stroke-linejoin="round"/>
<path d="M12.9983 18.3333C12.8143 18.3333 12.665 18.4827 12.6663 18.6667C12.6663 18.8507 12.8157 19 12.9997 19C13.1837 19 13.333 18.8507 13.333 18.6667C13.333 18.4827 13.1837 18.3333 12.9983 18.3333" stroke="#635BFF" stroke-width="2" stroke-linecap="round" stroke-linejoin="round"/>
</svg>
