<svg width="32" height="32" viewBox="0 0 32 32" fill="none" xmlns="http://www.w3.org/2000/svg">
<path fill-rule="evenodd" clip-rule="evenodd" d="M21.5515 4H6.67553C5.19553 4 3.99819 5.20533 4.00886 6.68667L4.14753 25.3533C4.15819 26.8187 5.34886 28 6.81419 28H25.3222C26.7955 28 27.9889 26.8067 27.9889 25.3333V10.4373C27.9889 9.73067 27.7075 9.052 27.2075 8.552L23.4369 4.78133C22.9369 4.28133 22.2595 4 21.5515 4Z" stroke="white" stroke-width="1.5" stroke-linecap="round" stroke-linejoin="round"/>
<path d="M21.3229 4V9.212C21.3229 9.948 20.7256 10.5453 19.9896 10.5453H11.9896C11.2536 10.5453 10.6562 9.948 10.6562 9.212V4" stroke="white" stroke-width="1.5" stroke-linecap="round" stroke-linejoin="round"/>
<path d="M9.33301 28V17.7147C9.33301 16.768 10.101 16 11.0477 16H20.953C21.8983 16 22.6663 16.768 22.6663 17.7147V28" stroke="white" stroke-width="1.5" stroke-linecap="round" stroke-linejoin="round"/>
</svg>
