<svg width="32" height="32" viewBox="0 0 32 32" fill="none" xmlns="http://www.w3.org/2000/svg">
<circle cx="16.0003" cy="16.6663" r="2.33431" stroke="white" stroke-width="1.5" stroke-linecap="round" stroke-linejoin="round"/>
<path d="M16 8.66406V9.99795" stroke="white" stroke-width="1.5" stroke-linecap="round" stroke-linejoin="round"/>
<path d="M10.3399 11.0118L11.283 11.9549" stroke="white" stroke-width="1.5" stroke-linecap="round" stroke-linejoin="round"/>
<path d="M17.6523 15.0148L21.6593 11.0078" stroke="white" stroke-width="1.5" stroke-linecap="round" stroke-linejoin="round"/>
<path d="M11.3311 22.6709H20.6683" stroke="white" stroke-width="1.5" stroke-linecap="round" stroke-linejoin="round"/>
<path d="M24.0038 16.6709H22.6699" stroke="white" stroke-width="1.5" stroke-linecap="round" stroke-linejoin="round"/>
<path d="M9.32998 16.6709H7.99609" stroke="white" stroke-width="1.5" stroke-linecap="round" stroke-linejoin="round"/>
<path fill-rule="evenodd" clip-rule="evenodd" d="M15.6244 4.65869C9.18083 4.92823 4.07295 10.1896 3.9942 16.6383C3.98238 20.5071 5.84 24.1433 8.98166 26.4011C9.871 27.0223 10.9328 27.3489 12.0176 27.3348H19.9916C21.0517 27.3507 22.0902 27.0349 22.9622 26.4318C27.2772 23.366 29.0734 17.8349 27.383 12.8189C25.6925 7.80293 20.9148 4.48729 15.6244 4.65869Z" stroke="white" stroke-width="1.5" stroke-linecap="round" stroke-linejoin="round"/>
</svg>
