<svg width="24" height="25" viewBox="0 0 24 25" fill="none" xmlns="http://www.w3.org/2000/svg">
<path d="M21.5933 8.01551C21.4794 7.59291 21.2568 7.20751 20.9477 6.89768C20.6386 6.58784 20.2537 6.36437 19.8313 6.24951C18.2653 5.81951 12.0003 5.81251 12.0003 5.81251C12.0003 5.81251 5.73633 5.80551 4.16933 6.21651C3.74725 6.33665 3.36315 6.56328 3.0539 6.87464C2.74464 7.186 2.52062 7.57163 2.40333 7.99451C1.99033 9.56051 1.98633 12.8085 1.98633 12.8085C1.98633 12.8085 1.98233 16.0725 2.39233 17.6225C2.62233 18.4795 3.29733 19.1565 4.15533 19.3875C5.73733 19.8175 11.9853 19.8245 11.9853 19.8245C11.9853 19.8245 18.2503 19.8315 19.8163 19.4215C20.2388 19.3068 20.6241 19.0839 20.934 18.7747C21.2439 18.4655 21.4677 18.0807 21.5833 17.6585C21.9973 16.0935 22.0003 12.8465 22.0003 12.8465C22.0003 12.8465 22.0203 9.58151 21.5933 8.01551ZM9.99633 15.8175L10.0013 9.81751L15.2083 12.8225L9.99633 15.8175Z" fill="black"/>
</svg>
