<svg width="35" height="35" viewBox="0 0 35 35" fill="none" xmlns="http://www.w3.org/2000/svg">
<path fill-rule="evenodd" clip-rule="evenodd" d="M24.9346 17.6778L17.0611 23.9766C16.4806 24.441 15.6437 24.3947 15.118 23.869L11.129 19.8799C10.6033 19.3543 10.557 18.5174 11.0214 17.9369L17.3202 10.0634C20.2005 6.46304 24.5612 4.36719 29.1719 4.36719V4.36719C29.9776 4.36719 30.6308 5.02038 30.6308 5.82613V5.82613C30.6308 10.4368 28.535 14.7975 24.9346 17.6778Z" stroke="#691AFF" stroke-width="2" stroke-linecap="round" stroke-linejoin="round"/>
<path d="M23.3352 18.957V25.3501C23.3352 25.9027 23.023 26.4079 22.5287 26.655L19.004 28.4174C18.6258 28.6066 18.184 28.6222 17.7933 28.4604C17.4025 28.2985 17.1013 27.9751 16.9675 27.5739L16.0405 24.7928" stroke="#691AFF" stroke-width="2" stroke-linecap="round" stroke-linejoin="round"/>
<path d="M10.2053 18.9588L7.42434 18.0318C7.02311 17.898 6.69966 17.5968 6.53781 17.206C6.37596 16.8153 6.39164 16.3735 6.58078 15.9952L8.34318 12.4706C8.59029 11.9763 9.09543 11.6641 9.648 11.6641H16.0411" stroke="#691AFF" stroke-width="2" stroke-linecap="round" stroke-linejoin="round"/>
<path fill-rule="evenodd" clip-rule="evenodd" d="M8.38186 30.028L4.36963 30.6308L4.97239 26.6186C5.16792 25.317 6.18966 24.2952 7.49124 24.0997V24.0997C8.43179 23.9584 9.3836 24.2718 10.0561 24.9444C10.7287 25.6169 11.0421 26.5687 10.9008 27.5093V27.5093C10.7052 28.8108 9.68344 29.8325 8.38186 30.028V30.028Z" stroke="#691AFF" stroke-width="2" stroke-linecap="round" stroke-linejoin="round"/>
</svg>
