<svg width="35" height="35" viewBox="0 0 35 35" fill="none" xmlns="http://www.w3.org/2000/svg">
<path fill-rule="evenodd" clip-rule="evenodd" d="M29.2 30H6.8C5.253 30 4 28.8067 4 27.3333V8.66667C4 7.19333 5.253 6 6.8 6H29.2C30.747 6 32 7.19333 32 8.66667V27.3333C32 28.8067 30.747 30 29.2 30Z" stroke="#691AFF" stroke-width="2" stroke-linecap="round" stroke-linejoin="round"/>
<path d="M4 12.5H32" stroke="#691AFF" stroke-width="2" stroke-linecap="round" stroke-linejoin="round"/>
<path d="M7.70524 9.32016C7.70124 9.32016 7.69857 9.32282 7.69857 9.32682C7.69857 9.33082 7.70124 9.33349 7.70524 9.33349C7.70924 9.33349 7.71191 9.33082 7.71191 9.32682C7.71191 9.32282 7.70924 9.32016 7.70524 9.32016" stroke="#691AFF" stroke-width="2" stroke-linecap="round" stroke-linejoin="round"/>
<path d="M11.0959 9.32016C11.0919 9.32016 11.0892 9.32282 11.0892 9.32682C11.0892 9.33082 11.0932 9.33349 11.0959 9.33349C11.0999 9.33349 11.1025 9.33082 11.1025 9.32682C11.1025 9.32282 11.0999 9.32016 11.0959 9.32016" stroke="#691AFF" stroke-width="2" stroke-linecap="round" stroke-linejoin="round"/>
<path d="M14.4811 9.32016C14.4771 9.32016 14.4745 9.32282 14.4745 9.32682C14.4745 9.33082 14.4771 9.33349 14.4811 9.33349C14.4851 9.33349 14.4878 9.33082 14.4878 9.32682C14.4878 9.32282 14.4851 9.32016 14.4811 9.32016" stroke="#691AFF" stroke-width="2" stroke-linecap="round" stroke-linejoin="round"/>
<path d="M15.25 19L16.5 23L18 19L19.5 23L20.75 19" stroke="#691AFF" stroke-width="2" stroke-linecap="round" stroke-linejoin="round"/>
<path d="M7 19L8.25 23L9.75 19L11.25 23L12.5 19" stroke="#691AFF" stroke-width="2" stroke-linecap="round" stroke-linejoin="round"/>
<path d="M23.5 19L24.75 23L26.25 19L27.75 23L29 19" stroke="#691AFF" stroke-width="2" stroke-linecap="round" stroke-linejoin="round"/>
</svg>
